<?xml version="1.0" standalone="no"?>
<!DOCTYPE svg PUBLIC "-//W3C//DTD SVG 20010904//EN"
 "http://www.w3.org/TR/2001/REC-SVG-20010904/DTD/svg10.dtd">
<svg version="1.0" xmlns="http://www.w3.org/2000/svg"
 width="372.000000pt" height="356.000000pt" viewBox="0 0 372.000000 356.000000"
 preserveAspectRatio="xMidYMid meet">

<g transform="translate(0.000000,356.000000) scale(0.100000,-0.100000)"
fill="#000000" stroke="none">
<path d="M691 2754 c-7 -16 -16 -61 -19 -100 -8 -119 24 -184 128 -267 31 -24
26 -23 -38 10 -41 21 -97 58 -124 83 l-51 45 6 -51 c12 -104 85 -205 174 -241
23 -10 43 -21 43 -24 0 -12 -195 42 -238 66 l-43 24 7 -22 c36 -117 121 -193
254 -229 l65 -18 -98 3 -99 2 55 -51 c37 -34 74 -58 118 -74 75 -27 93 -40 58
-40 l-24 -1 26 -23 c23 -20 29 -38 43 -129 29 -203 118 -382 264 -538 141
-150 300 -241 477 -274 172 -32 355 -16 513 45 322 125 573 447 622 799 6 44
18 83 28 94 12 15 14 21 5 24 -19 7 -16 23 5 23 46 0 222 110 222 139 0 3 -42
5 -92 4 l-93 -3 65 18 c124 33 208 105 244 209 l15 43 -37 -19 c-44 -22 -222
-75 -222 -66 0 2 24 17 54 33 91 52 134 122 152 245 l6 48 -49 -48 c-43 -41
-189 -130 -198 -121 -2 2 22 23 53 48 68 55 95 105 100 186 4 63 -21 179 -37
170 -4 -3 -11 -28 -14 -55 -7 -62 -42 -132 -97 -193 -48 -55 -68 -62 -44 -17
20 39 29 124 19 176 l-7 38 -15 -55 c-21 -82 -47 -129 -112 -205 -53 -61 -146
-145 -162 -145 -3 0 -35 35 -72 79 -69 83 -197 191 -269 229 -24 13 -34 17
-24 10 57 -39 138 -110 181 -158 53 -60 125 -166 125 -185 0 -28 -348 -153
-393 -142 -12 3 -56 18 -97 33 -70 24 -84 26 -205 22 -113 -4 -139 -8 -197
-32 l-68 -28 -72 22 c-85 26 -236 84 -290 111 l-38 19 26 43 c55 88 127 161
259 266 l30 23 -30 -17 c-94 -55 -194 -139 -283 -238 -32 -35 -48 -46 -62 -42
-10 3 -58 47 -106 97 -91 96 -153 201 -155 263 -1 29 -1 29 -9 5 -15 -47 -10
-114 14 -172 l23 -57 -33 25 c-39 30 -106 117 -123 160 -7 17 -15 53 -19 79
l-7 49 -14 -30z m516 -518 c87 -35 192 -75 233 -88 l75 -25 -1 -42 c-1 -23 -5
-45 -8 -48 -3 -4 -36 -9 -74 -13 l-67 -6 53 -9 c58 -9 65 -18 25 -33 -27 -10
-27 -10 -4 -11 13 -1 39 8 57 20 19 11 34 16 34 11 0 -25 -55 -73 -98 -87
l-47 -15 66 4 67 5 5 -42 c3 -23 9 -59 13 -79 l6 -36 -67 -21 c-68 -21 -171
-27 -210 -12 -16 7 -10 11 35 24 30 9 64 23 75 32 19 14 19 15 -8 5 -58 -21
-277 -5 -277 20 0 5 28 12 63 16 47 6 56 9 37 14 -22 6 -20 9 23 20 26 7 49
16 52 20 2 4 -19 1 -48 -7 -58 -15 -277 -18 -262 -4 6 5 55 19 110 31 129 29
141 37 54 32 -77 -5 -182 12 -212 33 -18 13 -17 14 14 19 19 3 80 7 136 10
144 8 170 21 57 29 -88 5 -171 27 -209 53 -17 12 0 13 119 7 105 -5 137 -3
132 5 -4 7 -17 12 -29 12 -44 1 -158 49 -222 95 -37 26 -64 49 -61 52 4 4 42
-2 146 -23 21 -4 17 2 -23 37 -47 40 -108 139 -87 139 6 0 8 4 5 10 -3 5 33
-13 80 -41 47 -28 156 -79 242 -113z m1663 140 c-1 -30 -42 -96 -83 -133 -26
-24 -42 -43 -36 -43 5 0 42 7 80 16 39 9 73 14 75 11 9 -8 -84 -75 -142 -102
-29 -14 -79 -31 -111 -38 -87 -20 -48 -31 84 -23 77 5 113 4 109 -3 -14 -22
-121 -52 -209 -58 -103 -7 -89 -18 37 -28 153 -12 180 -17 165 -26 -27 -18
-95 -32 -174 -38 l-80 -6 103 -25 c56 -14 102 -28 102 -32 0 -18 -200 -13
-266 7 -53 16 -49 2 3 -16 33 -10 35 -13 18 -20 -17 -6 -15 -8 10 -8 48 -2
105 -13 105 -21 0 -25 -211 -41 -266 -20 -15 6 -29 8 -32 5 -7 -7 98 -55 123
-56 l20 0 -20 -9 c-11 -5 -52 -9 -91 -9 -79 -1 -194 31 -194 55 0 7 5 44 12
82 l11 68 55 -14 c39 -10 57 -11 65 -3 8 8 4 11 -12 11 -30 0 -94 36 -110 62
-17 28 -8 32 28 14 16 -9 40 -16 53 -16 19 1 17 3 -12 17 l-35 15 64 14 c35 7
65 15 68 17 2 3 -27 2 -64 0 -82 -6 -100 5 -105 62 -2 33 0 40 17 43 68 11
375 126 482 181 32 16 72 40 90 54 34 25 63 31 63 13z m-893 -200 c102 -36
167 -105 198 -210 19 -63 19 -100 0 -163 -18 -61 -65 -122 -131 -170 -52 -38
-133 -78 -140 -70 -3 3 33 35 79 71 89 71 111 96 147 165 38 76 37 191 -4 246
-12 16 -16 17 -30 6 -14 -12 -13 -16 11 -45 22 -27 24 -31 9 -34 -12 -3 -15
-9 -11 -20 19 -45 18 -54 -2 -48 -17 5 -19 2 -15 -24 l4 -30 -36 15 c-19 8
-54 15 -76 15 -42 0 -54 14 -20 25 11 3 20 10 20 15 0 4 -9 10 -20 13 -33 9
-24 27 10 20 52 -10 86 43 64 101 -5 12 -13 10 -52 -13 -42 -25 -56 -29 -122
-27 -64 1 -81 6 -115 29 -43 29 -55 24 -55 -25 0 -40 35 -72 71 -64 33 6 41
-13 9 -21 -11 -3 -20 -9 -20 -13 0 -5 9 -12 20 -15 32 -10 23 -25 -15 -25 -20
0 -52 -7 -72 -15 -46 -20 -46 -20 -38 14 5 26 4 29 -14 24 -16 -4 -19 -1 -14
16 3 12 9 24 14 27 14 8 10 24 -6 24 -20 0 -19 6 6 42 18 25 19 32 8 39 -8 5
-17 9 -20 9 -11 0 -30 -54 -36 -101 -15 -123 36 -218 173 -325 46 -36 84 -67
84 -70 0 -5 -42 11 -88 35 -60 30 -144 113 -172 167 -20 40 -24 64 -24 129 0
82 14 124 66 198 21 30 115 82 176 97 45 11 125 5 179 -14z m-216 -183 c26 7
24 -10 -1 -18 -23 -7 -50 10 -50 30 0 22 25 23 28 2 3 -13 9 -17 23 -14z m256
2 c-10 -24 -37 -30 -55 -11 -16 16 -15 17 11 11 24 -6 27 -4 27 16 0 17 3 20
11 12 7 -7 9 -19 6 -28z m-98 -34 l24 -43 -26 -22 c-14 -11 -30 -32 -37 -45
l-12 -23 -18 28 c-9 16 -27 37 -38 48 -20 17 -20 20 -5 50 24 49 34 57 62 54
19 -2 32 -15 50 -47z m-71 -136 c15 -32 26 -32 40 1 14 29 26 25 47 -17 20
-38 8 -89 -36 -149 l-31 -43 -24 29 c-54 66 -69 138 -38 182 20 28 28 28 42
-3z m-275 -189 c17 -13 16 -16 -15 -40 -40 -31 -35 -33 17 -6 21 11 41 18 43
15 10 -10 -50 -75 -75 -81 -28 -7 -110 15 -106 29 3 8 105 95 113 96 3 0 13
-6 23 -13z m643 -7 c10 -12 40 -34 66 -48 l48 -27 -36 -17 c-59 -28 -95 -22
-139 23 -21 22 -36 42 -33 45 3 4 30 -5 60 -20 l53 -26 -38 32 c-30 25 -35 34
-26 45 15 19 23 18 45 -7z m-546 -70 c0 -6 -14 -29 -32 -51 -40 -51 -87 -72
-141 -63 l-40 7 59 32 c33 17 77 44 99 59 43 29 55 33 55 16z m475 -30 c39
-22 86 -48 105 -56 l35 -15 -28 -10 c-41 -15 -92 -1 -133 34 -35 31 -72 88
-57 88 5 0 40 -18 78 -41z m-430 -1 c-4 -18 -14 -46 -22 -62 -22 -42 1 -23 34
29 15 25 31 45 36 45 10 0 -2 -47 -24 -91 -16 -33 -16 -79 0 -79 4 0 18 30 31
66 14 36 29 68 34 72 5 3 7 -27 3 -73 -4 -55 -13 -92 -31 -127 -14 -27 -21
-46 -15 -42 19 11 66 122 84 195 10 38 19 68 21 66 2 -2 15 -43 29 -91 22 -75
68 -176 80 -176 2 0 -8 25 -22 56 -27 59 -42 167 -26 177 6 4 20 -20 32 -53
25 -67 37 -80 46 -50 4 13 -2 39 -15 67 -11 25 -20 54 -18 65 2 17 10 10 36
-30 41 -64 56 -75 31 -23 -10 22 -19 50 -19 62 0 19 9 13 63 -37 34 -32 77
-71 96 -85 21 -15 32 -30 27 -37 -9 -16 -69 -15 -84 0 -9 9 -12 6 -12 -16 0
-28 -1 -28 -43 -24 l-44 5 5 -47 c3 -33 -2 -68 -17 -111 -32 -95 -35 -98 -57
-38 -10 30 -23 53 -28 54 -6 0 -19 -24 -31 -53 -24 -59 -27 -58 -64 16 -12 23
-26 40 -30 37 -5 -3 -15 -28 -22 -55 -7 -28 -16 -47 -20 -43 -15 16 -59 163
-59 197 0 34 -2 36 -35 36 -31 0 -35 3 -35 25 0 22 -2 24 -24 14 -26 -12 -76
-5 -76 11 0 5 24 28 54 50 30 23 71 61 91 86 20 24 39 44 41 44 3 0 2 -15 -1
-32z"/>
<path d="M898 2365 c13 -26 47 -56 99 -89 61 -37 64 -32 7 11 -27 20 -64 50
-83 67 -23 21 -30 25 -23 11z"/>
<path d="M1253 1823 c9 -2 23 -2 30 0 6 3 -1 5 -18 5 -16 0 -22 -2 -12 -5z"/>
<path d="M2790 2327 c-30 -29 -66 -60 -80 -70 -15 -11 -9 -9 17 4 41 22 131
104 122 113 -2 3 -29 -19 -59 -47z"/>
<path d="M2463 1823 c9 -2 25 -2 35 0 9 3 1 5 -18 5 -19 0 -27 -2 -17 -5z"/>
<path d="M1750 2450 l0 -150 90 0 c95 0 142 14 154 45 13 35 6 92 -13 109 -14
13 -17 24 -12 39 12 31 1 65 -27 87 -20 16 -40 20 -108 20 l-84 0 0 -150z
m154 84 c9 -3 16 -14 16 -24 0 -21 -19 -30 -66 -30 -31 0 -34 3 -34 30 0 27 3
30 34 30 19 0 41 -3 50 -6z m24 -113 c8 -4 12 -19 10 -32 -3 -22 -9 -24 -60
-27 l-58 -3 0 36 0 35 48 0 c26 0 53 -4 60 -9z"/>
<path d="M1043 1043 c-93 -108 -91 -94 -27 -147 36 -30 66 -46 83 -46 33 0 74
40 69 67 -2 10 6 26 19 36 39 31 30 69 -24 116 -27 23 -51 41 -54 41 -4 0 -33
-30 -66 -67z m107 -28 c17 -19 21 -28 13 -36 -8 -8 -20 -6 -43 11 -25 17 -28
25 -19 36 16 19 22 18 49 -11z m-47 -63 c18 -16 23 -47 9 -56 -5 -3 -26 6 -46
20 -36 25 -37 27 -20 45 17 19 25 18 57 -9z"/>
<path d="M2572 1060 l-54 -50 73 -80 c39 -44 76 -80 81 -80 5 0 34 23 64 52
48 45 53 53 40 66 -13 13 -20 11 -56 -18 -37 -29 -43 -31 -56 -18 -14 13 -12
18 15 41 17 14 31 31 31 37 0 23 -31 21 -62 -5 -30 -26 -32 -26 -45 -9 -12 17
-9 22 27 52 32 27 38 37 29 48 -18 22 -30 17 -87 -36z"/>
<path d="M2343 904 c-24 -14 -43 -28 -43 -31 0 -7 100 -193 104 -193 2 0 25
12 51 26 76 43 102 103 70 164 -34 65 -108 79 -182 34z m125 -37 c23 -27 24
-62 2 -90 -12 -15 -27 -27 -34 -27 -17 0 -69 97 -62 115 7 19 79 20 94 2z"/>
<path d="M1310 907 c-33 -16 -70 -73 -70 -107 0 -69 91 -135 153 -111 24 9 26
13 15 31 -8 13 -24 20 -44 20 -36 0 -64 26 -64 61 0 30 9 43 38 58 19 10 28
10 48 -4 14 -9 28 -23 31 -31 3 -8 16 -14 29 -14 49 0 18 71 -42 96 -41 17
-62 17 -94 1z"/>
<path d="M1523 734 l-31 -105 22 -9 c11 -4 24 -5 28 -1 3 3 18 50 33 105 22
80 24 100 13 107 -27 18 -35 6 -65 -97z"/>
<path d="M2084 811 c-50 -30 -67 -97 -39 -151 32 -61 121 -79 174 -35 42 36
56 83 38 127 -31 73 -108 99 -173 59z m106 -51 c54 -54 -20 -143 -77 -93 -35
30 -38 59 -9 88 30 30 59 32 86 5z"/>
<path d="M1803 785 c-64 -27 -83 -119 -37 -174 44 -52 122 -58 167 -12 19 19
19 19 -1 30 -15 8 -27 8 -46 0 -77 -36 -131 61 -60 108 24 16 28 15 60 -2 32
-17 36 -17 51 -3 19 20 10 36 -33 54 -41 17 -60 17 -101 -1z"/>
</g>
</svg>
